<?xml version="1.0" standalone="no"?><!DOCTYPE svg PUBLIC "-//W3C//DTD SVG 1.1//EN" "http://www.w3.org/Graphics/SVG/1.1/DTD/svg11.dtd"><svg t="1541866552126" class="icon" style="" viewBox="0 0 1024 1024" version="1.1" xmlns="http://www.w3.org/2000/svg" p-id="3622" xmlns:xlink="http://www.w3.org/1999/xlink" width="64" height="64"><defs><style type="text/css"></style></defs><path d="M497.894 319.898c-4.505 3.686-7.065 7.475-7.73 11.392-0.615 3.942-0.666 8.294-0.154 13.081l-25.703 3.021c-41.574 4.02-69.862 16.41-84.89 37.12s-23.756 41.523-26.137 62.413c-1.997 15.77-0.947 30.157 3.149 43.187s10.957 23.834 20.505 32.46c9.6 8.628 21.248 15.77 34.996 21.454 13.772 5.683 26.163 9.856 37.196 12.518 11.034 2.662 24.653 5.248 40.884 7.834v148.787l-29.517-8.525c-6.4-1.485-15.232-5.555-26.522-12.237-11.29-6.707-21.53-14.413-30.617-23.091-9.088-8.73-15.488-18.15-19.15-28.34-3.66-10.137-7.96-17.714-12.978-22.68s-11.085-5.223-18.176-0.82c-7.117 4.403-10.676 11.93-10.676 22.554s3.43 21.683 10.24 33.152c6.836 11.443 14.772 21.81 23.783 31.052 9.062 9.268 20.48 17.792 34.355 25.6 13.85 7.783 26.7 13.44 38.554 17.05 11.852 3.558 25.395 6.989 40.73 10.291v15.949c0 4.224 1.97 8.576 5.862 13.056 3.942 4.506 9.984 6.349 18.099 5.504 8.14-0.794 13.465-3.2 16-7.142 2.509-3.917 3.789-8.27 3.789-13.056v-12.954l39.91-6.886c14.413-1.818 29.9-8.09 46.49-18.842 16.563-10.7 29.158-23.04 37.734-36.966s13.517-28.877 14.9-44.826 0.127-30.413-3.687-43.443c-3.84-13.03-9.216-24.09-16.154-33.28s-15.59-16.87-25.984-23.091-22.323-11.008-35.814-14.31-32.615-6.503-57.395-9.626V386.995l19.942 3.021c8.55 1.1 18.048 5.632 28.416 13.62 10.394 7.96 18.509 17.28 24.32 27.903l12.595 28.595c3.661 7.706 8.704 13.466 15.181 17.332s12.8 3.89 18.995 0.128c6.195-3.738 9.882-9.421 11.085-17.05 1.203-7.603-1.562-17.766-8.192-30.49-6.656-12.748-13.491-24.115-20.506-34.099-7.04-10.01-16.742-19.123-29.158-27.366s-23.962-13.927-34.688-17.05-23.45-6.041-37.99-8.806v-7.143c0.537-10.086-4.199-16.128-14.208-18.15s-17.204-1.203-21.684 2.458z m-7.859 202.956l-21.325-4.121c-15.667-2.919-29.158-7.091-40.448-12.519-11.315-5.401-19.61-12.672-24.908-21.862-6.196-10.266-8.295-21.683-6.298-34.253 1.997-12.544 6.144-23.219 12.442-32.025s14.233-15.488 23.808-20.07c9.548-4.583 18.124-7.604 25.702-9.063 7.552-1.485 17.894-2.586 31.027-3.303v137.216z m43.776 45.927l29.799 2.739c20.608 1.818 35.148 6.374 43.75 13.62 8.55 7.218 14.31 16.178 17.203 26.802 2.919 10.624 3.943 21.607 3.021 32.845-0.922 11.29-4.147 21.709-9.728 31.232-5.555 9.523-13.542 17.51-24.038 23.936s-20.455 10.496-29.952 12.263c-9.472 1.715-19.508 2.97-30.055 3.712V568.78z" p-id="3623"></path><path d="M960.666 466.74L522.138 95.333c-7.117-6.041-17.536-6.067-24.704-0.102L51.84 466.662c-7.526 6.272-9.114 17.178-3.712 25.344l85.965 129.818c2.893 4.403 7.5 7.398 12.672 8.32 5.325 0.87 10.547-0.358 14.771-3.507l37.606-27.93 72.525 328.909a19.195 19.195 0 0 0 18.74 15.053H730.7c9.088 0 16.947-6.4 18.79-15.283l68.301-328.55 42.035 23.833c8.935 5.094 20.224 2.201 25.703-6.426L964.454 491.7c5.172-8.115 3.559-18.765-3.788-24.96z m-97.741 113.484L813.9 552.422a19.166 19.166 0 0 0-17.408-0.793 19.246 19.246 0 0 0-10.88 13.568L715.11 904.269H305.87l-75.597-342.81a19.144 19.144 0 0 0-12.032-13.85c-6.118-2.278-12.954-1.33-18.176 2.586l-45.133 33.536-65.305-98.585L509.619 135.04l413.466 350.208-60.16 94.976z" p-id="3624"></path></svg>