<?xml version="1.0" standalone="no"?><!DOCTYPE svg PUBLIC "-//W3C//DTD SVG 1.1//EN" "http://www.w3.org/Graphics/SVG/1.1/DTD/svg11.dtd"><svg t="1541866410271" class="icon" style="" viewBox="0 0 1024 1024" version="1.1" xmlns="http://www.w3.org/2000/svg" p-id="2871" xmlns:xlink="http://www.w3.org/1999/xlink" width="64" height="64"><defs><style type="text/css"></style></defs><path d="M173.610667 188.352a88.277333 88.277333 0 1 0 0 176.576 88.277333 88.277333 0 0 0 0-176.576z m0 235.328a88.277333 88.277333 0 1 0 0 176.533333 88.277333 88.277333 0 0 0 0-176.533333z m0 235.413333a88.277333 88.277333 0 1 0 0 176.576 88.277333 88.277333 0 0 0 0-176.576z m235.434666-323.690666H879.786667a58.88 58.88 0 0 0 0-117.76H409.045333a58.88 58.88 0 0 0 0 117.76z m470.741334 117.781333H409.045333a58.88 58.88 0 0 0 0 117.76H879.786667a58.88 58.88 0 0 0 0-117.76z m0 235.306667H409.045333a58.88 58.88 0 0 0 0 117.76H879.786667a58.88 58.88 0 0 0 58.88-58.88 59.008 59.008 0 0 0-58.88-58.88z" p-id="2872"></path></svg>