<?xml version="1.0" standalone="no"?><!DOCTYPE svg PUBLIC "-//W3C//DTD SVG 1.1//EN" "http://www.w3.org/Graphics/SVG/1.1/DTD/svg11.dtd"><svg t="1542275928489" class="icon" style="" viewBox="0 0 1024 1024" version="1.1" xmlns="http://www.w3.org/2000/svg" p-id="1922" xmlns:xlink="http://www.w3.org/1999/xlink" width="16" height="16"><defs><style type="text/css"></style></defs><path d="M972.8 230.4c-38.4 0-83.2-12.8-115.2-19.2-12.8-6.4-25.6-6.4-32-12.8-25.6-6.4-57.6-19.2-96-44.8-6.4-6.4-19.2-12.8-25.6-12.8-12.8-6.4-25.6-12.8-38.4-25.6-12.8-6.4-25.6-6.4-32-12.8-6.4-6.4-12.8-12.8-19.2-12.8-6.4 0-6.4-6.4-12.8-6.4C569.6 57.6 544 25.6 512 0c-32 25.6-57.6 57.6-89.6 76.8-6.4 6.4-12.8 6.4-12.8 12.8-6.4 0-12.8 6.4-19.2 12.8-6.4 6.4-19.2 6.4-25.6 12.8-12.8 12.8-25.6 19.2-38.4 25.6-12.8 6.4-19.2 12.8-25.6 12.8-38.4 25.6-76.8 38.4-96 44.8-12.8 6.4-25.6 6.4-38.4 12.8-32 12.8-76.8 19.2-115.2 19.2 0 19.2 0 44.8 6.4 70.4 6.4 96 25.6 243.2 57.6 320 0 6.4 0 6.4 6.4 12.8v6.4C192 825.6 320 960 467.2 1011.2c12.8 6.4 32 12.8 44.8 12.8 12.8 0 32-6.4 51.2-12.8 147.2-51.2 275.2-185.6 345.6-371.2v-6.4c0-6.4 0-6.4 6.4-12.8 32-83.2 51.2-224 57.6-320V230.4z m-51.2 51.2V300.8c-6.4 89.6-25.6 230.4-51.2 307.2V627.2c-64 172.8-179.2 294.4-313.6 339.2h-6.4c-6.4 0-19.2 6.4-25.6 6.4-6.4 0-19.2-6.4-25.6-6.4h-6.4c-134.4-44.8-249.6-166.4-313.6-339.2v-6.4-6.4-6.4C128 524.8 108.8 390.4 102.4 300.8V281.6v-6.4c25.6-6.4 57.6-12.8 83.2-19.2 6.4 0 19.2-6.4 32-12.8 32-6.4 64-25.6 102.4-44.8 12.8-6.4 25.6-12.8 32-12.8 12.8-6.4 25.6-12.8 38.4-25.6 6.4-6.4 19.2-12.8 25.6-19.2 12.8-6.4 12.8-6.4 19.2-12.8l6.4-6.4 6.4-6.4c25.6-12.8 44.8-32 64-44.8 19.2 19.2 38.4 32 57.6 51.2L576 128h6.4c6.4 6.4 12.8 6.4 12.8 12.8 6.4 6.4 19.2 12.8 25.6 19.2 12.8 6.4 25.6 19.2 38.4 25.6 12.8 6.4 19.2 12.8 25.6 19.2 38.4 19.2 76.8 38.4 102.4 44.8 32 0 44.8 6.4 51.2 6.4 25.6 6.4 57.6 12.8 83.2 25.6 0-6.4 0 0 0 0z m-185.6 115.2l-268.8 275.2-134.4-140.8c-6.4-12.8-25.6-12.8-32 0-6.4 12.8-6.4 25.6 0 38.4l153.6 160c6.4 6.4 12.8 6.4 19.2 6.4 6.4 0 12.8 0 19.2-6.4l288-294.4c6.4-12.8 6.4-25.6 0-38.4-19.2-12.8-32-12.8-44.8 0z" p-id="1923"></path></svg>